<svg xmlns="http://www.w3.org/2000/svg" width="1694" height="311" viewBox="0 0 1694 311" version="1.1"><path d="M 143.500 5.662 C 104.980 10.308, 75.506 24.365, 50.291 50.116 C 42.763 57.804, 35.380 66.910, 30.519 74.500 C 26.751 80.386, 20.988 91.321, 21.425 91.758 C 21.669 92.002, 23.296 89.375, 25.041 85.919 C 41.983 52.356, 77.418 22.989, 113.651 12.483 C 126.565 8.738, 138.559 6.895, 155.500 6.052 L 170.500 5.306 158.500 5.303 C 151.900 5.301, 145.150 5.463, 143.500 5.662 M 239 30.294 C 239 30.531, 242.037 33.006, 245.750 35.795 C 257.123 44.337, 272.050 59.883, 280.513 72 C 285.189 78.695, 287.108 80.764, 284.224 76 C 277.043 64.141, 263.050 48.316, 252 39.558 C 244.394 33.530, 239 29.686, 239 30.294 M 875.607 50.582 C 874.647 53.083, 874.894 53.522, 876.250 51.727 C 877.131 50.560, 879.421 49.970, 884 49.728 L 890.500 49.385 883.357 49.193 C 877.645 49.039, 876.092 49.317, 875.607 50.582 M 891 49.916 C 891 50.384, 891.876 50.996, 892.947 51.276 C 894.534 51.691, 894.966 52.866, 895.285 57.642 L 895.676 63.500 895.588 57.110 C 895.510 51.437, 895.248 50.628, 893.250 49.893 C 892.013 49.437, 891 49.447, 891 49.916 M 934.136 51.750 C 934.256 54.164, 934.326 54.220, 934.711 52.212 C 935.133 50.010, 935.475 49.935, 943.825 50.212 L 952.500 50.500 952.599 115.765 C 952.653 151.661, 952.979 181.313, 953.324 181.658 C 954.183 182.516, 956.492 180.468, 960.157 175.596 C 962.795 172.090, 962.579 172.220, 958.657 176.500 C 956.003 179.397, 954.049 180.869, 954.010 180 C 953.973 179.175, 953.968 149.986, 953.999 115.136 C 954.041 68.768, 953.747 51.400, 952.905 50.386 C 952.083 49.395, 949.225 49, 942.878 49 L 934 49 934.136 51.750 M 146.745 55.049 C 135.958 56.305, 127.186 58.861, 117.080 63.693 C 109.236 67.444, 106.301 69.561, 99.538 76.349 C 93.128 82.782, 90.548 86.291, 87.292 93 C 81.936 104.039, 79.970 111.850, 80.622 119.500 L 81.134 125.500 72.357 136.500 C 61.720 149.830, 57 157.433, 57 161.239 C 57 164.979, 61.088 168.741, 66.679 170.149 C 70.411 171.089, 71 171.598, 71 173.884 C 71 175.339, 70.100 178.209, 69 180.261 C 66.497 184.932, 66.493 186.540, 68.978 189.699 C 70.456 191.578, 70.709 192.676, 69.978 194.041 C 68.313 197.152, 68.891 200.779, 71.500 203.595 C 74.483 206.814, 74.487 206.897, 71.975 214.405 C 69.257 222.531, 69.427 226.166, 72.709 230.066 C 77.610 235.890, 81.604 236.953, 98.679 236.978 C 110.906 236.996, 114.153 237.296, 115.377 238.520 C 116.750 239.893, 118.454 244.742, 122.221 258 L 123.500 262.500 173.441 262.759 C 203.474 262.915, 223.754 262.646, 224.316 262.084 C 224.897 261.503, 224.641 258.559, 223.642 254.324 C 221.533 245.386, 218.314 224.619, 217.449 214.366 C 216.906 207.933, 217.125 205.139, 218.499 201.004 C 220.342 195.456, 224.884 186.936, 229.839 179.734 C 241.119 163.338, 247.273 139.792, 245.019 121.649 C 243.652 110.653, 241.663 104.157, 236.772 94.713 C 229.759 81.173, 219.719 72.077, 202.928 64.050 C 192.957 59.283, 182.748 56.528, 169.637 55.066 C 159.119 53.893, 156.692 53.891, 146.745 55.049 M 875.475 130.500 C 875.475 171.750, 875.598 188.771, 875.750 168.324 C 875.901 147.877, 875.901 114.127, 875.750 93.324 C 875.599 72.521, 875.475 89.250, 875.475 130.500 M 182.656 97.747 C 182.311 98.305, 183.373 100.452, 185.015 102.518 C 186.657 104.585, 188 106.951, 188 107.778 C 188 109.520, 170.049 128.100, 166.564 129.966 C 163.535 131.587, 162.756 131.110, 153.102 121.722 C 148.734 117.475, 144.653 114, 144.033 114 C 143.413 114, 135.472 121.430, 126.385 130.511 C 108.949 147.936, 107.942 149.580, 112.761 152.764 C 114.949 154.210, 115.480 153.807, 129.369 140.129 C 137.260 132.358, 144.058 126, 144.475 126 C 144.892 126, 149.154 130.050, 153.947 135 C 158.739 139.950, 163.168 144, 163.788 144 C 164.916 144, 174.729 135.121, 187.402 122.633 C 191.467 118.628, 194.980 116, 196.269 116 C 197.444 116, 199.890 117.439, 201.704 119.198 C 206.465 123.812, 207.258 122.344, 206.844 109.687 C 206.655 103.898, 206.268 98.931, 205.985 98.650 C 204.901 97.571, 183.282 96.735, 182.656 97.747 M 13.032 111.560 C 11.315 116.917, 10.104 122.021, 10.340 122.900 C 10.699 124.241, 10.787 124.217, 10.884 122.750 C 10.948 121.788, 12.332 116.857, 13.961 111.794 C 15.589 106.731, 16.748 102.415, 16.537 102.203 C 16.325 101.992, 14.748 106.202, 13.032 111.560 M 302.089 118.422 C 302.040 118.929, 302.659 122.979, 303.465 127.422 C 304.271 131.865, 305.119 136.850, 305.349 138.500 C 305.579 140.150, 305.594 138.350, 305.382 134.500 C 305.058 128.631, 302.372 115.510, 302.089 118.422 M 543.595 128.319 L 544.252 131.138 534.218 130.819 C 528.700 130.644, 524.395 130.838, 524.651 131.250 C 524.908 131.662, 529.591 132, 535.059 132 C 543.866 132, 544.998 131.800, 544.985 130.250 C 544.976 129.287, 544.513 127.825, 543.954 127 C 543.206 125.894, 543.112 126.240, 543.595 128.319 M 1678.729 129.959 C 1682.705 130.326, 1686.127 130.822, 1686.332 131.063 C 1686.537 131.303, 1687.234 132.400, 1687.879 133.500 C 1688.990 135.392, 1689.039 135.367, 1688.777 133.041 C 1688.441 130.054, 1685.846 129.181, 1677.500 129.246 L 1671.500 129.293 1678.729 129.959 M 817.387 132.433 C 817.085 133.221, 816.986 137.272, 817.169 141.435 C 817.351 145.599, 817.292 149.004, 817.038 149.002 C 816.784 149.001, 814.534 147.094, 812.038 144.765 L 807.500 140.529 812.140 145.392 C 814.692 148.066, 817.230 149.976, 817.780 149.636 C 818.388 149.260, 818.574 145.713, 818.254 140.583 L 817.727 132.147 821.114 131.734 L 824.500 131.320 821.219 131.160 C 819.174 131.060, 817.730 131.540, 817.387 132.433 M 830.500 131.907 L 835.500 132.500 836.012 190 L 836.525 247.500 836.762 190.450 C 836.943 147.143, 836.711 133.111, 835.800 132.200 C 835.140 131.540, 832.553 131.071, 830.050 131.157 L 825.500 131.314 830.500 131.907 M 1000.280 131.736 C 1002.909 131.943, 1006.959 131.940, 1009.280 131.731 C 1011.601 131.521, 1009.450 131.352, 1004.500 131.355 C 999.550 131.358, 997.651 131.530, 1000.280 131.736 M 1333.621 132.546 C 1333.279 133.436, 1333.029 134.689, 1333.063 135.332 C 1333.098 135.974, 1333.534 135.488, 1334.031 134.250 C 1334.870 132.164, 1335.556 132, 1343.430 132 L 1351.925 132 1352.275 141.250 L 1352.626 150.500 1352.563 141 L 1352.500 131.500 1343.371 131.214 C 1335.711 130.974, 1334.142 131.189, 1333.621 132.546 M 1628.607 132.582 C 1628.273 133.452, 1628.107 158.764, 1628.237 188.832 L 1628.475 243.500 1628.987 188 L 1629.500 132.500 1638 131.936 L 1646.500 131.373 1637.857 131.186 C 1630.783 131.034, 1629.104 131.287, 1628.607 132.582 M 1647.360 141 C 1647.360 146.225, 1647.529 148.363, 1647.735 145.750 C 1647.941 143.137, 1647.941 138.863, 1647.735 136.250 C 1647.529 133.637, 1647.360 135.775, 1647.360 141 M 742.400 138.882 C 740.255 140.467, 736.475 143.943, 734 146.608 C 730.094 150.812, 730.358 150.661, 736 145.458 C 739.575 142.161, 743.625 138.708, 745 137.784 C 746.375 136.861, 747.230 136.081, 746.900 136.052 C 746.570 136.024, 744.545 137.297, 742.400 138.882 M 676.051 147.500 C 679.622 151.350, 683.341 155.625, 684.316 157 C 686.019 159.404, 686.020 159.376, 684.339 156.268 C 683.377 154.490, 679.658 150.215, 676.074 146.768 L 669.557 140.500 676.051 147.500 M 305.995 155.796 L 306.491 168.500 306.779 156.583 C 306.937 150.029, 306.714 144.312, 306.283 143.880 C 305.852 143.447, 305.723 148.809, 305.995 155.796 M 1689 146.845 C 1689 149.302, 1688.339 151.288, 1687.169 152.347 C 1686.162 153.259, 1685.146 153.891, 1684.913 153.752 C 1684.679 153.613, 1685.391 154.277, 1686.494 155.228 C 1687.597 156.178, 1688.838 156.966, 1689.250 156.978 C 1689.662 156.990, 1690 153.850, 1690 150 C 1690 146.150, 1689.775 143, 1689.500 143 C 1689.225 143, 1689 144.730, 1689 146.845 M 1333.395 160.500 C 1333.396 168.200, 1333.553 171.218, 1333.743 167.206 C 1333.934 163.195, 1333.932 156.895, 1333.741 153.206 C 1333.549 149.518, 1333.393 152.800, 1333.395 160.500 M 934.442 186 C 934.442 202.225, 934.580 208.862, 934.748 200.750 C 934.916 192.637, 934.916 179.362, 934.748 171.250 C 934.580 163.137, 934.442 169.775, 934.442 186 M 454.607 164.582 C 453.829 166.609, 453.844 175.817, 454.630 178.750 L 455.233 181 490.543 181 C 523.331 181, 525.886 181.125, 526.311 182.750 C 526.655 184.067, 526.797 183.943, 526.884 182.250 L 527 180 491.519 180 L 456.038 180 455.460 177.697 C 455.142 176.430, 455.021 172.942, 455.191 169.947 L 455.500 164.500 463.500 163.933 L 471.500 163.367 463.357 163.183 C 456.740 163.034, 455.100 163.296, 454.607 164.582 M 7.184 169 C 7.134 171.475, 7.727 176.425, 8.502 180 C 9.999 186.907, 10.010 187.112, 8 170.500 C 7.326 164.933, 7.267 164.825, 7.184 169 M 1303.199 188.741 L 1303 196.982 1252.333 197.241 C 1212.236 197.446, 1201.613 197.766, 1201.408 198.775 C 1201.266 199.476, 1201.379 199.589, 1201.658 199.025 C 1201.995 198.345, 1219.160 198, 1252.615 198 C 1293.925 198, 1303.156 197.757, 1303.578 196.656 C 1303.862 195.917, 1303.937 191.980, 1303.746 187.906 L 1303.397 180.500 1303.199 188.741 M 952.793 194.734 C 952.604 195.155, 952.702 207.200, 953.011 221.500 L 953.575 247.500 954.037 221.154 C 954.441 198.138, 954.140 191.741, 952.793 194.734 M 1057.116 199.250 C 1057.203 200.929, 1057.348 201.058, 1057.688 199.759 C 1058.112 198.139, 1061.606 198, 1108.322 197.750 L 1158.500 197.481 1107.750 197.241 L 1057 197 1057.116 199.250 M 1496.667 197.667 C 1496.300 198.033, 1496.007 198.821, 1496.015 199.417 C 1496.024 200.066, 1496.346 200.003, 1496.818 199.259 C 1497.425 198.305, 1509.130 197.957, 1547.553 197.750 L 1597.500 197.481 1547.417 197.240 C 1519.871 197.108, 1497.033 197.300, 1496.667 197.667 M 875.400 221.500 C 875.401 229.750, 875.556 232.992, 875.744 228.704 C 875.932 224.417, 875.931 217.667, 875.742 213.704 C 875.552 209.742, 875.399 213.250, 875.400 221.500 M 1276.441 214.574 C 1275.374 215.440, 1275.175 215.777, 1276 215.324 C 1276.825 214.871, 1281.775 214.243, 1287 213.928 L 1296.500 213.356 1287.441 213.178 C 1280.488 213.041, 1277.931 213.366, 1276.441 214.574 M 1581.994 213.748 C 1586.666 213.935, 1590.867 214.467, 1591.329 214.929 C 1591.792 215.392, 1591.420 217.221, 1590.503 218.995 C 1589.585 220.769, 1589.263 221.955, 1589.787 221.632 C 1590.311 221.308, 1591.320 219.642, 1592.029 217.929 C 1593.811 213.627, 1592.449 212.987, 1582 213.219 L 1573.500 213.407 1581.994 213.748 M 894.397 230 C 894.397 237.975, 894.553 241.238, 894.743 237.250 C 894.932 233.262, 894.932 226.738, 894.743 222.750 C 894.553 218.762, 894.397 222.025, 894.397 230 M 1647.218 233.821 L 1647 248.142 1637.998 247.821 C 1633.046 247.644, 1628.996 247.838, 1628.998 248.250 C 1628.999 248.662, 1633.064 249, 1638.031 249 C 1644.521 249, 1647.203 248.634, 1647.562 247.700 C 1647.836 246.984, 1647.920 240.347, 1647.749 232.950 L 1647.437 219.500 1647.218 233.821 M 1140.710 232.202 C 1136.426 236.597, 1134.176 239.286, 1135.710 238.178 C 1139.354 235.545, 1150.484 223.647, 1148.872 224.106 C 1148.668 224.165, 1144.995 227.808, 1140.710 232.202 M 449.750 230.740 C 453.188 230.936, 458.813 230.936, 462.250 230.740 C 465.688 230.545, 462.875 230.385, 456 230.385 C 449.125 230.385, 446.313 230.545, 449.750 230.740 M 812.376 234.250 C 809.624 236.588, 805.826 239.772, 803.936 241.328 L 800.500 244.155 804.575 241.328 C 809.255 238.081, 818.775 230.016, 817.940 230.006 C 817.632 230.003, 815.129 231.912, 812.376 234.250 M 1352.238 270.750 L 1352.477 311.500 1352.750 271.058 L 1353.023 230.617 1357.262 234.558 L 1361.500 238.500 1357.547 234.250 C 1355.373 231.912, 1353.235 230, 1352.797 230 C 1352.359 230, 1352.107 248.338, 1352.238 270.750 M 934.398 243.500 L 934.500 248.500 943 248.558 L 951.500 248.617 943.303 248.270 L 935.106 247.924 934.701 243.212 L 934.296 238.500 934.398 243.500 M 34.090 242.750 C 42.120 253.277, 56.444 268.138, 64.313 274.108 C 66.616 275.855, 65.575 274.632, 62 271.392 C 53.086 263.312, 43.760 253.621, 38.286 246.750 C 35.766 243.588, 33.491 241, 33.230 241 C 32.969 241, 33.356 241.787, 34.090 242.750 M 817.100 244.550 C 816.921 248.234, 818.900 249.011, 827.950 248.811 L 836.500 248.622 827.541 248.061 C 819.046 247.529, 818.547 247.371, 817.891 245 C 817.312 242.908, 817.183 242.834, 817.100 244.550 M 1020.963 245.718 C 1022.036 247.936, 1022.034 247.936, 1010.268 248.253 L 998.500 248.570 1010.750 248.785 C 1017.487 248.903, 1023 248.636, 1023 248.191 C 1023 247.746, 1022.300 246.509, 1021.445 245.441 C 1019.947 243.572, 1019.929 243.582, 1020.963 245.718 M 262.610 261.354 C 249.866 274.351, 249.553 275.220, 261.826 263.527 C 267.285 258.327, 276.853 247.799, 275.843 248.104 C 275.654 248.161, 269.700 254.123, 262.610 261.354 M 768.250 250.735 C 770.862 250.941, 775.138 250.941, 777.750 250.735 C 780.362 250.529, 778.225 250.360, 773 250.360 C 767.775 250.360, 765.638 250.529, 768.250 250.735 M 1390.250 250.735 C 1392.862 250.941, 1397.138 250.941, 1399.750 250.735 C 1402.362 250.529, 1400.225 250.360, 1395 250.360 C 1389.775 250.360, 1387.638 250.529, 1390.250 250.735 M 117.115 300.935 C 120.204 301.981, 124.929 303.094, 127.615 303.407 C 131.433 303.852, 130.862 303.576, 125 302.142 C 112.905 299.183, 111.149 298.914, 117.115 300.935" stroke="none" fill="#f3f9fb" fill-rule="evenodd"/><path d="M 139.084 7.203 C 101.279 11.403, 63.074 32.987, 39.645 63.382 C 3.777 109.912, -2.712 168.366, 22.175 220.749 C 35.751 249.324, 61.014 274.989, 89.910 289.562 C 108.990 299.185, 136.104 306, 155.307 306 C 162.783 306, 181.362 303.657, 190.223 301.597 C 235.636 291.038, 273.640 260.419, 292.625 219.096 C 296.935 209.714, 302.335 192.719, 304.093 183 C 306.135 171.711, 305.884 138.890, 303.668 127.500 C 298.767 102.315, 287.750 79.311, 271.639 60.628 C 236.294 19.637, 191.103 1.423, 139.084 7.203 M 876.461 51.250 C 876.199 51.938, 876.100 96.375, 876.242 150 L 876.500 247.500 884.345 247.794 C 888.659 247.955, 892.709 247.656, 893.345 247.129 C 894.199 246.419, 894.594 220.901, 894.862 149.103 L 895.224 52.036 892.547 51.018 C 888.657 49.539, 877.049 49.706, 876.461 51.250 M 934.515 54.212 C 934.060 57.362, 934.378 195.840, 934.949 243.750 L 935 248 944.080 248 L 953.160 248 952.904 221.750 C 952.763 207.313, 953.043 195.275, 953.526 195 C 954.486 194.453, 958.162 198.695, 982.342 228.250 L 998.500 247.999 1010.285 248 L 1022.070 248 1020.878 245.772 C 1020.222 244.547, 1016.494 239.922, 1012.593 235.494 C 1008.692 231.066, 1001.904 223.181, 997.508 217.972 C 993.113 212.762, 985.801 204.119, 981.258 198.765 C 976.716 193.411, 973 188.520, 973 187.895 C 973 187.271, 976.938 182.253, 981.750 176.744 C 992.661 164.254, 1016.993 135.487, 1018.983 132.725 C 1020.442 130.699, 1020.379 130.677, 1014.983 131.324 C 1011.967 131.686, 1006.252 131.987, 1002.283 131.991 L 995.065 132 975.461 156.485 C 964.679 169.952, 955.410 181.247, 954.862 181.585 C 954.315 181.923, 953.604 181.937, 953.282 181.615 C 952.960 181.294, 952.653 151.661, 952.599 115.765 L 952.500 50.500 943.817 50.212 L 935.134 49.924 934.515 54.212 M 146.745 55.049 C 135.958 56.305, 127.186 58.861, 117.080 63.693 C 109.236 67.444, 106.301 69.561, 99.538 76.349 C 93.128 82.782, 90.548 86.291, 87.292 93 C 81.936 104.039, 79.970 111.850, 80.622 119.500 L 81.134 125.500 72.357 136.500 C 61.720 149.830, 57 157.433, 57 161.239 C 57 164.979, 61.088 168.741, 66.679 170.149 C 70.411 171.089, 71 171.598, 71 173.884 C 71 175.339, 70.100 178.209, 69 180.261 C 66.497 184.932, 66.493 186.540, 68.978 189.699 C 70.456 191.578, 70.709 192.676, 69.978 194.041 C 68.313 197.152, 68.891 200.779, 71.500 203.595 C 74.483 206.814, 74.487 206.897, 71.975 214.405 C 69.257 222.531, 69.427 226.166, 72.709 230.066 C 77.610 235.890, 81.604 236.953, 98.679 236.978 C 110.906 236.996, 114.153 237.296, 115.377 238.520 C 116.750 239.893, 118.454 244.742, 122.221 258 L 123.500 262.500 173.441 262.759 C 203.474 262.915, 223.754 262.646, 224.316 262.084 C 224.897 261.503, 224.641 258.559, 223.642 254.324 C 221.533 245.386, 218.314 224.619, 217.449 214.366 C 216.906 207.933, 217.125 205.139, 218.499 201.004 C 220.342 195.456, 224.884 186.936, 229.839 179.734 C 241.119 163.338, 247.273 139.792, 245.019 121.649 C 243.652 110.653, 241.663 104.157, 236.772 94.713 C 229.759 81.173, 219.719 72.077, 202.928 64.050 C 192.957 59.283, 182.748 56.528, 169.637 55.066 C 159.119 53.893, 156.692 53.891, 146.745 55.049 M 439.500 66.435 C 414.615 71.381, 392.774 85.992, 378.753 107.072 C 368.233 122.891, 364.147 135.309, 363.313 154 C 362.128 180.583, 372.421 205.608, 392.450 224.837 C 415.208 246.685, 446.726 254.838, 478.500 247.095 C 507.789 239.958, 534.271 215.628, 543.369 187.500 C 546.369 178.224, 548.825 164.870, 547.616 164.406 C 547.002 164.171, 526.025 164.096, 501 164.239 L 455.500 164.500 455.191 169.947 C 455.021 172.942, 455.142 176.430, 455.460 177.697 L 456.038 180 491.519 180 C 532.466 180, 529.448 178.958, 522.963 190.855 C 517.527 200.827, 511.673 208.105, 504.500 213.811 C 488.996 226.143, 478.513 230.087, 459.500 230.741 C 443.014 231.309, 434.853 229.701, 422.003 223.357 C 414.082 219.446, 411.094 217.240, 404.003 210.071 C 394.196 200.157, 389.951 193.468, 385.698 181.230 C 382.904 173.192, 382.657 171.390, 382.582 158.500 C 382.512 146.473, 382.830 143.443, 384.842 137 C 392.872 111.283, 412.609 92.135, 438 85.429 C 445.731 83.387, 464.224 83.123, 471 84.957 C 484.199 88.531, 497.722 95.918, 507.068 104.661 C 512.014 109.287, 518.826 118.807, 522.875 126.750 L 525.041 131 534.520 131 C 541.643 131, 544 130.676, 544 129.697 C 544 127.261, 535.980 111.799, 530.923 104.482 C 519.065 87.329, 498.847 73.534, 477.329 67.914 C 467.138 65.252, 449.016 64.543, 439.500 66.435 M 182.656 97.747 C 182.311 98.305, 183.373 100.452, 185.015 102.518 C 186.657 104.585, 188 106.951, 188 107.778 C 188 109.520, 170.049 128.100, 166.564 129.966 C 163.535 131.587, 162.756 131.110, 153.102 121.722 C 148.734 117.475, 144.653 114, 144.033 114 C 143.413 114, 135.472 121.430, 126.385 130.511 C 108.949 147.936, 107.942 149.580, 112.761 152.764 C 114.949 154.210, 115.480 153.807, 129.369 140.129 C 137.260 132.358, 144.058 126, 144.475 126 C 144.892 126, 149.154 130.050, 153.947 135 C 158.739 139.950, 163.168 144, 163.788 144 C 164.916 144, 174.729 135.121, 187.402 122.633 C 191.467 118.628, 194.980 116, 196.269 116 C 197.444 116, 199.890 117.439, 201.704 119.198 C 206.465 123.812, 207.258 122.344, 206.844 109.687 C 206.655 103.898, 206.268 98.931, 205.985 98.650 C 204.901 97.571, 183.282 96.735, 182.656 97.747 M 618.725 130.566 C 597.955 135.598, 580.578 152.446, 574.463 173.479 C 572.161 181.397, 572.160 197.598, 574.460 205.512 C 580.498 226.281, 597.572 242.983, 618 248.103 C 621.087 248.877, 628.107 249.445, 634 249.398 C 651.810 249.257, 664.865 243.382, 677.584 229.785 C 688.084 218.561, 692.524 208.518, 693.664 193.414 C 694.959 176.254, 688.807 160.616, 675.584 147.453 C 662.651 134.579, 649.445 128.953, 632.500 129.098 C 628.100 129.136, 621.901 129.796, 618.725 130.566 M 765.763 130.033 C 744.242 133.657, 726.021 150.739, 719.464 173.438 C 717.137 181.492, 717.131 198.499, 719.452 206.482 C 724.474 223.758, 735.843 237.988, 750.500 245.341 C 758.510 249.360, 763.946 250.296, 776.275 249.781 C 792.188 249.115, 798.203 246.479, 813 233.686 L 817.500 229.795 818 238.648 L 818.500 247.500 827.258 247.789 L 836.016 248.078 835.758 190.289 L 835.500 132.500 826.606 132.209 L 817.713 131.918 818.246 140.468 C 818.540 145.171, 818.371 149.271, 817.871 149.580 C 817.371 149.889, 814.073 147.495, 810.543 144.260 C 802.698 137.072, 793 132.192, 783.017 130.411 C 774.662 128.920, 772.635 128.876, 765.763 130.033 M 1083.645 130.584 C 1063.511 135.458, 1044.855 154.100, 1039.487 174.711 C 1037.595 181.976, 1037.602 195.686, 1039.502 203.745 C 1042.905 218.180, 1053.843 233.301, 1066.320 240.821 C 1084.307 251.660, 1107.097 252.641, 1125.902 243.384 C 1134.352 239.225, 1145.533 228.822, 1150.686 220.324 C 1154.472 214.083, 1154.359 214, 1142.073 214 C 1134.359 214, 1133.082 214.258, 1131.405 216.153 C 1130.357 217.337, 1126.858 220.265, 1123.629 222.661 C 1110.861 232.132, 1093.867 233.698, 1079.721 226.707 C 1068.787 221.303, 1059.171 210.089, 1057.463 200.750 L 1056.777 197 1107.889 197 L 1159 197 1159 189.549 C 1159 179.326, 1157.510 172.945, 1152.835 163.154 C 1148.186 153.418, 1138.254 142.703, 1128.662 137.074 C 1116.077 129.690, 1098.065 127.093, 1083.645 130.584 M 1230.500 130.022 C 1208.361 134.466, 1189.194 152.999, 1183.509 175.460 C 1181.575 183.100, 1181.578 195.919, 1183.515 203.540 C 1187.171 217.921, 1196.802 231.691, 1208.752 239.623 C 1211.865 241.690, 1218.257 244.728, 1222.956 246.376 C 1230.492 249.019, 1232.857 249.378, 1243 249.415 C 1258.689 249.473, 1268.598 246.166, 1279.976 237.076 C 1287.977 230.685, 1298.699 216.940, 1297.366 214.784 C 1297.100 214.353, 1292.660 214, 1287.499 214 L 1278.116 214 1272.308 219.134 C 1269.114 221.958, 1263.575 225.670, 1260 227.384 C 1253.937 230.290, 1252.758 230.500, 1242.479 230.500 C 1232.010 230.500, 1231.119 230.333, 1224.690 227.168 C 1213.566 221.692, 1202.757 209.085, 1201.826 200.500 L 1201.500 197.500 1252.250 197.241 L 1303 196.982 1302.988 188.241 C 1302.966 172.089, 1297.814 159.849, 1286.007 147.905 C 1277.367 139.163, 1268.894 134.065, 1258.020 131.064 C 1250.230 128.914, 1238.274 128.462, 1230.500 130.022 M 1387 130.062 C 1379.202 131.384, 1366.609 137.931, 1359 144.619 L 1352.500 150.333 1352.212 141.128 L 1351.924 131.923 1343.212 132.212 L 1334.500 132.500 1334.245 221.750 L 1333.989 311 1342.995 311 L 1352 311 1352 270.500 C 1352 248.225, 1352.277 230, 1352.616 230 C 1352.955 230, 1355.894 232.464, 1359.148 235.476 C 1366.265 242.066, 1371.358 245.131, 1380 248.029 C 1385.620 249.913, 1388.146 250.155, 1398.661 249.812 C 1410.613 249.422, 1410.970 249.342, 1419.397 245.166 C 1443.861 233.044, 1457.510 204.367, 1451.554 177.600 C 1444.562 146.170, 1416.009 125.144, 1387 130.062 M 1522.191 131.025 C 1501.425 136.465, 1484.100 153.911, 1478.475 175.045 C 1476.570 182.207, 1476.607 196.069, 1478.552 203.540 C 1482.323 218.027, 1491.900 231.757, 1503.696 239.586 C 1506.839 241.673, 1513.257 244.739, 1517.956 246.401 C 1525.551 249.085, 1527.778 249.422, 1538 249.435 C 1547.365 249.446, 1550.734 249.027, 1556.147 247.177 C 1567.575 243.272, 1579.766 234.662, 1586.131 226 C 1589.801 221.007, 1592.181 216.101, 1591.482 214.971 C 1591.152 214.437, 1586.809 214, 1581.831 214 L 1572.780 214 1567.364 218.950 C 1564.385 221.673, 1558.932 225.385, 1555.245 227.200 C 1548.889 230.329, 1547.971 230.500, 1537.500 230.500 C 1527.007 230.500, 1526.121 230.334, 1519.690 227.168 C 1508.201 221.512, 1497.810 209.178, 1496.777 199.969 L 1496.500 197.500 1547.500 197 L 1598.500 196.500 1598.311 188.646 C 1598.206 184.326, 1597.627 178.488, 1597.023 175.674 C 1592.669 155.368, 1573.140 135.976, 1551.540 130.509 C 1543.486 128.470, 1531.113 128.688, 1522.191 131.025 M 1667.748 131.427 C 1662.428 133.325, 1657.594 137.281, 1653.008 143.489 C 1650.828 146.440, 1648.584 149.139, 1648.022 149.486 C 1647.355 149.899, 1647 146.962, 1647 141.020 L 1647 131.922 1638.250 132.211 L 1629.500 132.500 1629.500 190 L 1629.500 247.500 1638.250 247.789 L 1647 248.078 1647.102 237.289 C 1647.159 231.355, 1647.498 215.250, 1647.857 201.500 L 1648.509 176.500 1651.748 169.653 C 1656.129 160.389, 1660.297 155.390, 1666.085 152.457 C 1671.927 149.496, 1677.273 149.326, 1682.159 151.945 C 1685.631 153.806, 1685.859 153.813, 1687.394 152.117 C 1688.552 150.837, 1689 148.356, 1689 143.218 C 1689 135.135, 1687.715 131.427, 1684.628 130.598 C 1680.876 129.592, 1671.617 130.046, 1667.748 131.427 M 621.500 148.893 C 596.404 156.216, 584.031 184.808, 595.670 208.578 C 599.054 215.490, 608.228 224.281, 615.719 227.791 C 620.956 230.245, 622.584 230.500, 633.021 230.500 C 643.982 230.500, 644.861 230.343, 651.100 227.272 C 659.342 223.214, 667.129 215.437, 671.213 207.185 C 679.138 191.172, 674.076 168.432, 660.082 157.186 C 648.443 147.832, 635.021 144.948, 621.500 148.893 M 1086.597 148.993 C 1078.702 151.515, 1071.015 156.974, 1065.991 163.628 C 1061.512 169.561, 1056.801 178.868, 1057.612 180.182 C 1057.890 180.632, 1076.373 181, 1098.684 181 L 1139.250 181 1138.676 178.131 C 1138.361 176.553, 1136.689 172.840, 1134.962 169.881 C 1124.223 151.477, 1104.921 143.140, 1086.597 148.993 M 1230.836 148.919 C 1227.721 149.915, 1223.593 151.707, 1221.662 152.900 C 1213.856 157.724, 1202 173.518, 1202 179.092 C 1202 180.938, 1203.328 181, 1243 181 C 1272.236 181, 1284 180.683, 1284 179.896 C 1284 179.289, 1282.407 175.761, 1280.460 172.056 C 1270.057 152.260, 1249.850 142.838, 1230.836 148.919 M 1525.836 148.853 C 1518.228 151.375, 1514.288 153.945, 1508.259 160.319 C 1503.369 165.490, 1497 176.324, 1497 179.471 C 1497 180.807, 1500.763 181.011, 1526.750 181.086 C 1563.395 181.192, 1578.351 180.982, 1578.979 180.355 C 1579.243 180.090, 1577.750 176.552, 1575.661 172.492 C 1570.666 162.790, 1560.667 153.149, 1552.345 150.011 C 1544.147 146.920, 1533.124 146.438, 1525.836 148.853 M 765.500 149.346 C 751.382 154.021, 741.262 164.825, 737.395 179.350 C 734.698 189.477, 736.303 202.722, 741.249 211.161 C 744.901 217.394, 754.036 225.659, 760.747 228.804 C 765.850 231.196, 767.686 231.500, 777 231.500 C 786.587 231.500, 788.022 231.245, 793.500 228.564 C 801.140 224.825, 809.863 216.135, 813.310 208.826 C 823.218 187.820, 814.171 161.666, 793.500 151.559 C 788.466 149.098, 786.050 148.577, 778.500 148.323 C 772.907 148.136, 767.986 148.523, 765.500 149.346 M 1380.723 149.896 C 1369.239 153.681, 1359.352 163.870, 1354.908 176.500 C 1353.175 181.423, 1352.865 184.219, 1353.177 192.079 C 1353.507 200.391, 1353.977 202.507, 1356.736 208.079 C 1360.839 216.367, 1364.700 220.942, 1371.266 225.301 C 1391.679 238.851, 1418.979 231.037, 1430.092 208.465 C 1435.649 197.177, 1435.279 180.979, 1429.206 169.692 C 1425.429 162.672, 1417.959 155.598, 1410.389 151.871 C 1404.728 149.084, 1402.487 148.559, 1395.127 148.298 C 1388.683 148.070, 1385.038 148.474, 1380.723 149.896" stroke="none" fill="#5356FF" fill-rule="evenodd"/></svg>