<?xml version="1.0" standalone="no"?>
<!DOCTYPE svg PUBLIC "-//W3C//DTD SVG 20010904//EN"
 "http://www.w3.org/TR/2001/REC-SVG-20010904/DTD/svg10.dtd">
<svg version="1.0" xmlns="http://www.w3.org/2000/svg"
 width="500.000000pt" height="500.000000pt" viewBox="0 0 500.000000 500.000000"
 preserveAspectRatio="xMidYMid meet">
<metadata>
Created by potrace 1.14, written by Peter Selinger 2001-2017
</metadata>
<g transform="translate(0.000000,500.000000) scale(0.100000,-0.100000)"
fill="#000000" stroke="none">
<path d="M0 2500 l0 -2500 2500 0 2500 0 0 2500 0 2500 -2500 0 -2500 0 0
-2500z m1779 1666 c48 -26 51 -44 51 -367 0 -328 -3 -349 -58 -370 -38 -15
-88 -2 -112 28 -19 25 -20 39 -20 342 0 275 2 320 16 339 28 41 77 52 123 28z
m1552 -15 l29 -29 0 -327 0 -326 -25 -24 c-26 -27 -80 -34 -116 -15 -46 25
-49 51 -49 365 0 248 3 302 16 330 28 61 98 73 145 26z m-1811 -483 c0 -230 7
-260 75 -315 102 -85 256 -59 322 55 28 47 28 48 31 255 l3 207 549 0 548 0 4
-207 c3 -190 5 -212 25 -248 45 -84 107 -119 204 -113 57 3 75 9 111 35 24 17
53 50 65 74 22 40 23 54 23 251 l0 210 148 -4 c169 -4 198 -14 269 -91 48 -52
74 -99 100 -182 17 -57 18 -124 18 -1305 0 -1029 -2 -1255 -14 -1300 -31 -124
-109 -228 -201 -269 -44 -20 -60 -21 -1300 -21 l-1255 0 -50 24 c-56 26 -123
93 -154 155 -53 102 -51 60 -51 1412 0 1203 1 1260 19 1318 25 82 62 141 117
189 67 59 107 70 262 71 l132 1 0 -202z"/>
<path d="M1182 2098 l3 -1083 23 -43 c13 -24 32 -52 42 -62 20 -20 42 -20
1251 -20 l1230 0 29 32 c16 17 37 52 47 77 17 43 18 119 21 1114 l3 1067
-1326 0 -1325 0 2 -1082z m880 842 c25 -25 29 -36 24 -60 -5 -28 -246 -400
-289 -447 -14 -16 -32 -23 -58 -23 -33 0 -43 7 -110 83 -131 145 -139 156
-139 188 0 41 39 79 82 79 27 0 43 -11 94 -65 34 -36 64 -65 67 -65 2 0 50 70
106 155 56 85 111 161 123 170 34 23 66 18 100 -15z m1425 -282 c32 -30 31
-81 -2 -113 l-24 -25 -650 0 -649 0 -27 32 c-31 37 -29 82 6 111 20 16 67 17
672 17 l651 0 23 -22z m-1428 -365 c11 -10 24 -32 27 -49 5 -27 -12 -57 -144
-256 -196 -295 -188 -292 -350 -110 -51 56 -95 114 -98 129 -9 33 13 74 48 90
39 19 77 1 137 -68 l54 -61 107 165 c59 90 114 167 121 170 29 11 78 6 98 -10z
m1426 -238 c32 -31 33 -80 3 -112 l-21 -23 -648 0 c-356 0 -655 3 -664 6 -23
9 -48 62 -41 90 4 13 16 33 28 44 21 20 33 20 670 20 l649 0 24 -25z m-1440
-351 c24 -10 47 -62 40 -92 -4 -15 -70 -121 -148 -237 -189 -280 -188 -280
-346 -100 -80 92 -101 122 -101 146 0 42 39 79 83 79 30 0 44 -9 96 -66 34
-36 64 -64 65 -63 2 2 45 67 96 144 51 77 104 152 118 168 25 27 61 34 97 21z
m1440 -249 c34 -33 34 -83 -1 -116 l-26 -24 -628 -3 c-687 -3 -689 -3 -710 53
-15 41 -12 54 19 86 l29 29 647 0 646 0 24 -25z"/>
</g>
</svg>
